Coordinates
version=1
nRows=7
nColumns=42
inDegrees=yes

Units are S.I. units (second, meters, Newtons, ...)
If the header above contains a line with 'inDegrees', this indicates whether rotational values are in degrees (yes) or radians (no).

endheader
time	pelvis_tilt	pelvis_list	pelvis_rotation	pelvis_tx	pelvis_ty	pelvis_tz	hip_flexion_r	hip_adduction_r	hip_rotation_r	knee_angle_r	knee_adduction_r	knee_angle_r_beta	ankle_angle_r	subtalar_angle_r	mtp_angle_r	hip_flexion_l	hip_adduction_l	hip_rotation_l	knee_angle_l	knee_adduction_l	knee_angle_l_beta	ankle_angle_l	subtalar_angle_l	mtp_angle_l	lumbar_extension	lumbar_bending	lumbar_rotation	arm_flex_r	arm_add_r	arm_rot_r	elbow_flex_r	pro_sup_r	wrist_flex_r	wrist_dev_r	arm_flex_l	arm_add_l	arm_rot_l	elbow_flex_l	pro_sup_l	wrist_flex_l	wrist_dev_l
      0.40000000	      8.81950697	      3.40745354	     -2.29900206	     -1.55516266	      0.90164601	      0.17032466	      1.66590094	     -6.86100833	      0.62624538	     65.62141555	      6.61780923	      1.14530976	     -1.28406674	    -12.18695883	     -9.61862352	      4.89138022	      9.62315119	    -17.64255234	     25.98828832	     -4.38479972	      0.45358120	     19.12278778	     18.47757329	     -9.61862352	    -18.71410704	     -2.67319557	     -2.27075946	      3.46241301	     -9.80471660	     -9.75262530	     29.15706072	     90.00000001	      0.00000000	      0.00000000	     -6.65043634	     -7.18651292	    -26.78939727	     39.02090214	     90.00000001	      0.00000000	      0.00000000
      0.41000000	      8.92147262	      3.24505477	     -2.40164527	     -1.54793714	      0.90243837	      0.17034597	      3.51492238	     -6.46749354	      0.68166157	     66.79143209	      5.87204260	      1.16573040	      0.35945746	    -13.34226871	     -9.58183589	      3.90082344	      9.44478164	    -17.47668304	     25.47983992	     -4.10605867	      0.44470710	     19.45973381	     18.60399033	     -9.58183589	    -18.98140078	     -2.49809460	     -2.41923329	      3.33954856	     -9.95245329	     -9.90924362	     28.85872638	     90.00000001	      0.00000000	      0.00000000	     -6.30789376	     -7.31584448	    -26.51319159	     39.26617763	     90.00000001	      0.00000000	      0.00000000
      0.42000000	      9.00047388	      3.10900091	     -2.45944991	     -1.54081401	      0.90317456	      0.17029581	      5.34366001	     -6.10242556	      0.82215843	     67.66671663	      5.29867743	      1.18100700	      1.76619777	    -14.48514078	     -9.54817030	      2.93557849	      9.33774949	    -17.24779857	     24.93556279	     -3.89985496	      0.43520767	     19.76768918	     18.74779242	     -9.54817030	    -19.22357874	     -2.33684470	     -2.63079081	      3.23760258	    -10.04983093	    -10.19855962	     28.59909691	     90.00000001	      0.00000000	      0.00000000	     -5.96641863	     -7.50394169	    -26.10747079	     39.46996402	     90.00000001	      0.00000000	      0.00000000
      0.43000000	      9.06290354	      2.93389556	     -2.46618891	     -1.53377387	      0.90390843	      0.17020374	      7.10345896	     -5.66768566	      1.00827131	     68.17981268	      4.84442477	      1.18996221	      2.94094979	    -15.35544650	     -9.51986869	      2.00638318	      9.19634897	    -16.95912388	     24.41217127	     -3.71123664	      0.42607277	     20.03447611	     18.84311325	     -9.51986869	    -19.46539703	     -2.11262735	     -2.88458897	      3.13424757	    -10.16003996	    -10.50528126	     28.42151151	     90.00000001	      0.00000000	      0.00000000	     -5.62261258	     -7.69919609	    -25.68986527	     39.64199388	     90.00000001	      0.00000000	      0.00000000
      0.44000000	      9.12163333	      2.84823750	     -2.43476706	     -1.52682071	      0.90464117	      0.17010077	      8.77216907	     -5.41675083	      1.63039535	     68.37065906	      4.99959308	      1.19329311	      3.58882187	    -16.62507625	     -9.39781275	      1.05842039	      9.17168270	    -16.44653522	     23.81697659	     -3.46098245	      0.41568466	     20.18912998	     18.68561611	     -9.39781275	    -19.70676398	     -1.98292830	     -3.09014276	      3.11174004	    -10.00282534	    -12.25375175	     28.14392110	     90.00000001	      0.00000000	      0.00000000	     -5.32620140	     -8.10403504	    -24.37257231	     39.80003773	     90.00000001	      0.00000000	      0.00000000
      0.45000000	      9.11326817	      2.61213149	     -2.29431351	     -1.51982975	      0.90523622	      0.16979535	     10.37874286	     -4.93216861	      1.70227422	     68.16924224	      4.68822271	      1.18977773	      4.41742823	    -16.79080714	     -9.37284701	      0.31670917	      8.97912223	    -16.11457228	     23.45299320	     -3.39590028	      0.40933195	     20.40810242	     18.68212572	     -9.37284701	    -19.87273768	     -1.64103930	     -3.46782095	      2.93189021	    -10.14505694	    -12.37938354	     28.10376376	     90.00000001	      0.00000000	      0.00000000	     -4.97613001	     -8.22697516	    -24.15859959	     39.92233079	     90.00000001	      0.00000000	      0.00000000
      0.46000000	      9.16507633	      2.41899652	     -2.11303243	     -1.51289050	      0.90594319	      0.16952482	     11.76541714	     -4.54991268	      1.77513890	     67.56868238	      4.51698818	      1.17929598	      5.20792970	    -17.06601919	     -9.34170023	     -0.53610557	      8.81832849	    -15.51119689	     23.01476611	     -3.18791360	      0.40168345	     20.75494190	     18.70630343	     -9.34170023	    -20.08997536	     -1.36078055	     -3.80110132	      2.75689816	    -10.23122191	    -12.66939015	     28.04608557	     90.00000001	      0.00000000	      0.00000000	     -4.54529699	     -8.45044514	    -23.68632837	     39.98214899	     90.00000001	      0.00000000	      0.00000000
